<svg xmlns="http://www.w3.org/2000/svg" xmlns:xlink="http://www.w3.org/1999/xlink" width="2000" zoomAndPan="magnify" viewBox="0 0 1500 1499.999933" height="2000" preserveAspectRatio="xMidYMid meet" version="1.0"><defs><g/><clipPath id="d07a39ffe3"><path d="M 15.585938 1 L 1177 1 L 1177 1162.519531 L 15.585938 1162.519531 Z M 15.585938 1 " clip-rule="nonzero"/></clipPath><clipPath id="1ba0b8abc8"><path d="M 76.410156 61.140625 L 1117 61.140625 L 1117 1102 L 76.410156 1102 Z M 76.410156 61.140625 " clip-rule="nonzero"/></clipPath><clipPath id="7f597a3ffd"><path d="M 138.613281 123.34375 L 1055 123.34375 L 1055 1040 L 138.613281 1040 Z M 138.613281 123.34375 " clip-rule="nonzero"/></clipPath><clipPath id="0919919dad"><path d="M 222 68 L 1116 68 L 1116 1011.085938 L 222 1011.085938 Z M 222 68 " clip-rule="nonzero"/></clipPath><clipPath id="510899e2ed"><rect x="0" width="1192" y="0" height="1163"/></clipPath></defs><g transform="matrix(1, 0, 0, 1, 153, 49)"><g clip-path="url(#510899e2ed)"><g clip-path="url(#d07a39ffe3)"><path fill="#12046d" d="M 1176.605469 740.613281 L 1064.46875 236.675781 C 1063.511719 232.386719 1060.667969 228.757812 1056.726562 226.816406 L 602.699219 2.542969 C 598.644531 0.546875 593.894531 0.546875 589.839844 2.542969 L 135.8125 226.816406 C 131.871094 228.757812 129.027344 232.386719 128.070312 236.675781 L 15.933594 740.613281 C 14.992188 744.839844 15.984375 749.261719 18.640625 752.679688 L 332.84375 1156.804688 C 335.59375 1160.339844 339.824219 1162.410156 344.304688 1162.410156 L 848.234375 1162.410156 C 852.714844 1162.410156 856.945312 1160.339844 859.699219 1156.804688 L 1173.898438 752.679688 C 1176.558594 749.261719 1177.550781 744.839844 1176.605469 740.613281 Z M 841.132812 1133.375 L 351.40625 1133.375 L 45.753906 740.25 L 154.902344 249.769531 L 596.269531 31.75 L 1037.636719 249.769531 L 1146.785156 740.25 Z M 841.132812 1133.375 " fill-opacity="1" fill-rule="nonzero"/></g><g clip-path="url(#1ba0b8abc8)"><path fill="#12046d" d="M 1115.96875 723.992188 L 1015.5625 272.773438 C 1014.707031 268.933594 1012.160156 265.683594 1008.632812 263.945312 L 602.101562 63.136719 C 598.472656 61.34375 594.21875 61.34375 590.589844 63.136719 L 184.058594 263.945312 C 180.53125 265.683594 177.984375 268.933594 177.128906 272.773438 L 76.71875 723.992188 C 75.875 727.773438 76.765625 731.734375 79.144531 734.792969 L 360.476562 1096.640625 C 362.9375 1099.808594 366.726562 1101.660156 370.738281 1101.660156 L 821.953125 1101.660156 C 825.960938 1101.660156 829.75 1099.808594 832.214844 1096.640625 L 1113.546875 734.792969 C 1115.925781 731.734375 1116.816406 727.773438 1115.96875 723.992188 Z M 815.59375 1075.664062 L 377.097656 1075.664062 L 103.421875 723.667969 L 201.152344 284.496094 L 596.34375 89.285156 L 991.539062 284.496094 L 1089.269531 723.667969 Z M 815.59375 1075.664062 " fill-opacity="1" fill-rule="nonzero"/></g><g clip-path="url(#7f597a3ffd)"><path fill="#12046d" d="M 1053.957031 706.992188 L 965.546875 309.6875 C 964.792969 306.308594 962.550781 303.445312 959.445312 301.914062 L 601.492188 125.101562 C 598.292969 123.527344 594.550781 123.527344 591.355469 125.101562 L 233.402344 301.914062 C 230.292969 303.445312 228.050781 306.308594 227.296875 309.6875 L 138.886719 706.992188 C 138.144531 710.320312 138.925781 713.808594 141.023438 716.503906 L 388.738281 1035.113281 C 390.90625 1037.902344 394.242188 1039.535156 397.773438 1039.535156 L 795.070312 1039.535156 C 798.601562 1039.535156 801.9375 1037.902344 804.105469 1035.113281 L 1051.820312 716.503906 C 1053.917969 713.808594 1054.699219 710.320312 1053.957031 706.992188 Z M 789.472656 1016.644531 L 403.375 1016.644531 L 162.398438 706.707031 L 248.449219 320.011719 L 596.421875 148.125 L 944.394531 320.011719 L 1030.445312 706.707031 Z M 789.472656 1016.644531 " fill-opacity="1" fill-rule="nonzero"/></g><g clip-path="url(#0919919dad)"><path fill="#5ce1e6" d="M 352.121094 493.667969 C 436.351562 577.898438 496.515625 662.128906 556.679688 770.425781 C 837.449219 240.976562 1178.382812 0.316406 1106.1875 84.546875 C 877.558594 377.347656 721.128906 674.164062 568.714844 1011.085938 C 480.472656 850.648438 368.164062 638.0625 231.789062 593.941406 C 191.679688 553.832031 287.945312 457.570312 352.121094 493.667969 Z M 352.121094 493.667969 " fill-opacity="1" fill-rule="nonzero"/></g></g></g><g fill="#12046d" fill-opacity="1"><g transform="translate(408.039865, 1391.62486)"><g><path d="M 7.21875 0 L 7.21875 -83.375 L 24.34375 -83.375 L 24.34375 -49.75 L 60.5 -49.75 L 60.5 -83.375 L 77.625 -83.375 L 77.625 0 L 60.5 0 L 60.5 -35.421875 L 24.34375 -35.421875 L 24.34375 0 Z M 7.21875 0 "/></g></g></g><g fill="#12046d" fill-opacity="1"><g transform="translate(492.868982, 1391.62486)"><g><path d="M 7.21875 0 L 7.21875 -83.375 L 63.96875 -83.375 L 63.96875 -69.0625 L 24.34375 -69.0625 L 24.34375 -49.140625 L 60.9375 -49.140625 L 60.9375 -35.09375 L 24.34375 -35.09375 L 24.34375 -14.328125 L 64.015625 -14.328125 L 64.015625 0 Z M 7.21875 0 "/></g></g></g><g fill="#12046d" fill-opacity="1"><g transform="translate(562.478099, 1391.62486)"><g><path d="M 7.21875 0 L 7.21875 -83.375 L 39.84375 -83.375 C 46.144531 -83.375 51.535156 -82.191406 56.015625 -79.828125 C 60.492188 -77.460938 63.914062 -74.179688 66.28125 -69.984375 C 68.65625 -65.785156 69.84375 -60.925781 69.84375 -55.40625 C 69.84375 -49.882812 68.640625 -45.03125 66.234375 -40.84375 C 63.828125 -36.664062 60.363281 -33.398438 55.84375 -31.046875 C 51.332031 -28.703125 45.890625 -27.53125 39.515625 -27.53125 L 18.078125 -27.53125 L 18.078125 -41.46875 L 37.21875 -41.46875 C 40.570312 -41.46875 43.375 -42.054688 45.625 -43.234375 C 47.882812 -44.410156 49.570312 -46.039062 50.6875 -48.125 C 51.8125 -50.21875 52.375 -52.644531 52.375 -55.40625 C 52.375 -58.195312 51.8125 -60.617188 50.6875 -62.671875 C 49.570312 -64.722656 47.882812 -66.328125 45.625 -67.484375 C 43.375 -68.640625 40.550781 -69.21875 37.15625 -69.21875 L 24.34375 -69.21875 L 24.34375 0 Z M 7.21875 0 "/></g></g></g><g fill="#12046d" fill-opacity="1"><g transform="translate(636.171978, 1391.62486)"><g><path d="M 3.8125 -69.0625 L 3.8125 -83.375 L 71.859375 -83.375 L 71.859375 -69.0625 L 46.453125 -69.0625 L 46.453125 0 L 29.328125 0 L 29.328125 -69.0625 Z M 3.8125 -69.0625 "/></g></g></g><g fill="#12046d" fill-opacity="1"><g transform="translate(701.471617, 1391.62486)"><g><path d="M 2.234375 0 L 30.953125 -83.375 L 53.21875 -83.375 L 82.484375 0 L 63.453125 0 L 50.140625 -40.296875 C 48.535156 -45.515625 46.898438 -51.15625 45.234375 -57.21875 C 43.578125 -63.28125 41.816406 -69.953125 39.953125 -77.234375 L 43.875 -77.234375 C 42.039062 -69.953125 40.34375 -63.257812 38.78125 -57.15625 C 37.21875 -51.0625 35.648438 -45.441406 34.078125 -40.296875 L 21.046875 0 Z M 20.203125 -19.078125 L 20.203125 -32.5625 L 64.53125 -32.5625 L 64.53125 -19.078125 Z M 20.203125 -19.078125 "/></g></g></g><g fill="#12046d" fill-opacity="1"><g transform="translate(781.432167, 1391.62486)"><g><path d="M 43.765625 1.171875 C 36.335938 1.171875 29.6875 -0.523438 23.8125 -3.921875 C 17.9375 -7.316406 13.3125 -12.203125 9.9375 -18.578125 C 6.5625 -24.960938 4.875 -32.648438 4.875 -41.640625 C 4.875 -50.660156 6.566406 -58.367188 9.953125 -64.765625 C 13.347656 -71.171875 17.992188 -76.070312 23.890625 -79.46875 C 29.785156 -82.863281 36.410156 -84.5625 43.765625 -84.5625 C 48.535156 -84.5625 52.984375 -83.890625 57.109375 -82.546875 C 61.234375 -81.203125 64.878906 -79.242188 68.046875 -76.671875 C 71.222656 -74.097656 73.828125 -70.960938 75.859375 -67.265625 C 77.890625 -63.566406 79.222656 -59.367188 79.859375 -54.671875 L 62.5625 -54.671875 C 62.15625 -56.984375 61.410156 -59.050781 60.328125 -60.875 C 59.242188 -62.707031 57.898438 -64.257812 56.296875 -65.53125 C 54.691406 -66.800781 52.863281 -67.757812 50.8125 -68.40625 C 48.757812 -69.0625 46.519531 -69.390625 44.09375 -69.390625 C 39.695312 -69.390625 35.847656 -68.285156 32.546875 -66.078125 C 29.242188 -63.878906 26.695312 -60.71875 24.90625 -56.59375 C 23.113281 -52.476562 22.21875 -47.492188 22.21875 -41.640625 C 22.21875 -35.703125 23.117188 -30.671875 24.921875 -26.546875 C 26.734375 -22.429688 29.28125 -19.304688 32.5625 -17.171875 C 35.851562 -15.046875 39.695312 -13.984375 44.09375 -13.984375 C 46.476562 -13.984375 48.695312 -14.316406 50.75 -14.984375 C 52.800781 -15.660156 54.640625 -16.625 56.265625 -17.875 C 57.890625 -19.125 59.242188 -20.660156 60.328125 -22.484375 C 61.410156 -24.316406 62.175781 -26.390625 62.625 -28.703125 L 79.90625 -28.703125 C 79.382812 -24.640625 78.179688 -20.816406 76.296875 -17.234375 C 74.421875 -13.648438 71.921875 -10.46875 68.796875 -7.6875 C 65.679688 -4.914062 62.023438 -2.742188 57.828125 -1.171875 C 53.640625 0.390625 48.953125 1.171875 43.765625 1.171875 Z M 43.765625 1.171875 "/></g></g></g><g fill="#12046d" fill-opacity="1"><g transform="translate(865.869599, 1391.62486)"><g><path d="M 7.21875 0 L 7.21875 -83.375 L 63.96875 -83.375 L 63.96875 -69.0625 L 24.34375 -69.0625 L 24.34375 -49.140625 L 60.9375 -49.140625 L 60.9375 -35.09375 L 24.34375 -35.09375 L 24.34375 -14.328125 L 64.015625 -14.328125 L 64.015625 0 Z M 7.21875 0 "/></g></g></g><g fill="#12046d" fill-opacity="1"><g transform="translate(935.478693, 1391.62486)"><g><path d="M 7.21875 0 L 7.21875 -83.375 L 39.953125 -83.375 C 46.265625 -83.375 51.65625 -82.253906 56.125 -80.015625 C 60.601562 -77.785156 64.023438 -74.632812 66.390625 -70.5625 C 68.765625 -66.5 69.953125 -61.707031 69.953125 -56.1875 C 69.953125 -50.695312 68.738281 -45.957031 66.3125 -41.96875 C 63.882812 -37.976562 60.394531 -34.921875 55.84375 -32.796875 C 51.289062 -30.671875 45.804688 -29.609375 39.390625 -29.609375 L 17.40625 -29.609375 L 17.40625 -43.421875 L 37.328125 -43.421875 C 40.679688 -43.421875 43.476562 -43.914062 45.71875 -44.90625 C 47.957031 -45.894531 49.644531 -47.335938 50.78125 -49.234375 C 51.914062 -51.140625 52.484375 -53.457031 52.484375 -56.1875 C 52.484375 -58.976562 51.914062 -61.332031 50.78125 -63.25 C 49.644531 -65.175781 47.957031 -66.648438 45.71875 -67.671875 C 43.476562 -68.703125 40.660156 -69.21875 37.265625 -69.21875 L 24.34375 -69.21875 L 24.34375 0 Z M 53.828125 0 L 33.796875 -37.890625 L 52.265625 -37.890625 L 72.6875 0 Z M 53.828125 0 "/></g></g></g><g fill="#12046d" fill-opacity="1"><g transform="translate(1010.011905, 1391.62486)"><g><path d="M 3.8125 -69.0625 L 3.8125 -83.375 L 71.859375 -83.375 L 71.859375 -69.0625 L 46.453125 -69.0625 L 46.453125 0 L 29.328125 0 L 29.328125 -69.0625 Z M 3.8125 -69.0625 "/></g></g></g><g fill="#12046d" fill-opacity="1"><g transform="translate(1085.723404, 1342.124864)"><g><path d="M 2.921875 -44.453125 L 2.921875 -50.03125 L 40.9375 -50.03125 L 40.9375 -44.453125 L 25.109375 -44.453125 L 25.109375 0 L 18.796875 0 L 18.796875 -44.453125 Z M 2.921875 -44.453125 "/></g></g></g><g fill="#12046d" fill-opacity="1"><g transform="translate(1129.574917, 1342.124864)"><g><path d="M 5.8125 0 L 5.8125 -50.03125 L 14.671875 -50.03125 L 27.09375 -18.296875 C 27.382812 -17.554688 27.710938 -16.640625 28.078125 -15.546875 C 28.453125 -14.453125 28.851562 -13.273438 29.28125 -12.015625 C 29.707031 -10.765625 30.109375 -9.523438 30.484375 -8.296875 C 30.867188 -7.066406 31.195312 -5.945312 31.46875 -4.9375 L 30.046875 -4.9375 C 30.335938 -5.894531 30.671875 -6.976562 31.046875 -8.1875 C 31.429688 -9.394531 31.832031 -10.628906 32.25 -11.890625 C 32.664062 -13.160156 33.066406 -14.359375 33.453125 -15.484375 C 33.847656 -16.617188 34.191406 -17.554688 34.484375 -18.296875 L 46.703125 -50.03125 L 55.609375 -50.03125 L 55.609375 0 L 49.390625 0 L 49.390625 -28.671875 C 49.390625 -29.703125 49.394531 -30.867188 49.40625 -32.171875 C 49.414062 -33.484375 49.4375 -34.84375 49.46875 -36.25 C 49.507812 -37.664062 49.546875 -39.109375 49.578125 -40.578125 C 49.609375 -42.046875 49.632812 -43.460938 49.65625 -44.828125 L 50.265625 -44.828125 C 49.796875 -43.285156 49.289062 -41.726562 48.75 -40.15625 C 48.21875 -38.59375 47.703125 -37.082031 47.203125 -35.625 C 46.710938 -34.164062 46.25 -32.84375 45.8125 -31.65625 C 45.375 -30.476562 45 -29.484375 44.6875 -28.671875 L 33.40625 0 L 28 0 L 16.546875 -28.671875 C 16.234375 -29.453125 15.867188 -30.425781 15.453125 -31.59375 C 15.046875 -32.757812 14.585938 -34.054688 14.078125 -35.484375 C 13.578125 -36.921875 13.050781 -38.429688 12.5 -40.015625 C 11.957031 -41.609375 11.40625 -43.210938 10.84375 -44.828125 L 11.546875 -44.828125 C 11.597656 -43.566406 11.640625 -42.226562 11.671875 -40.8125 C 11.703125 -39.394531 11.726562 -37.960938 11.75 -36.515625 C 11.769531 -35.066406 11.789062 -33.671875 11.8125 -32.328125 C 11.84375 -30.984375 11.859375 -29.765625 11.859375 -28.671875 L 11.859375 0 Z M 5.8125 0 "/></g></g></g></svg>