<?xml version="1.0" standalone="no"?>
<!DOCTYPE svg PUBLIC "-//W3C//DTD SVG 20010904//EN"
 "http://www.w3.org/TR/2001/REC-SVG-20010904/DTD/svg10.dtd">
<svg version="1.0" xmlns="http://www.w3.org/2000/svg"
 width="5000.000000pt" height="5000.000000pt" viewBox="0 0 5000.000000 5000.000000"
 preserveAspectRatio="xMidYMid meet">

<g transform="translate(0.000000,5000.000000) scale(0.100000,-0.100000)"
fill="#000000" stroke="none">
<path d="M24915 42495 c-27 -7 -1089 -527 -2360 -1155 -1270 -628 -2791 -1380
-3380 -1670 -3325 -1641 -3338 -1647 -3381 -1692 -22 -24 -48 -63 -57 -88 -9
-25 -516 -2291 -1127 -5037 -785 -3530 -1110 -5009 -1110 -5051 0 -45 7 -72
28 -113 15 -30 430 -572 922 -1205 492 -632 1898 -2440 3123 -4016 1522 -1958
2240 -2874 2266 -2891 21 -14 55 -30 77 -36 55 -15 10083 -15 10138 0 22 6 56
22 77 36 27 17 489 605 1463 1857 783 1007 2191 2818 3129 4025 939 1207 1714
2211 1724 2230 10 20 19 67 21 106 3 63 -108 567 -1107 5060 -611 2745 -1118
5010 -1128 5035 -35 95 -62 112 -521 340 -233 116 -427 210 -432 210 -5 0 -68
-84 -141 -187 -73 -104 -148 -209 -167 -236 l-34 -47 388 -191 c214 -104 389
-191 391 -192 1 -2 309 -1380 683 -3062 375 -1683 861 -3866 1080 -4852 l399
-1792 -1087 -1398 c-598 -769 -1959 -2520 -3025 -3890 l-1938 -2493 -4844 0
-4843 0 -484 623 c-266 342 -1627 2091 -3023 3887 -1635 2102 -2538 3272
-2537 3285 1 15 1039 4684 2088 9395 l66 295 1927 952 c1059 524 3024 1495
4366 2158 l2440 1206 185 -92 c194 -97 2742 -1355 4645 -2294 616 -304 1371
-677 1679 -829 l559 -276 190 196 c104 107 198 205 207 217 l17 22 -1001 494
c-550 272 -2205 1089 -3676 1816 -1471 727 -2688 1326 -2705 1333 -51 19 -118
22 -170 7z"/>
<path d="M24870 41277 c-30 -14 -734 -361 -1565 -772 -830 -411 -1823 -901
-2205 -1090 -2519 -1242 -4290 -2120 -4317 -2141 -75 -56 -15 197 -1084 -4605
-1069 -4803 -1016 -4548 -973 -4630 22 -44 -142 168 2935 -3789 1733 -2227
2700 -3463 2722 -3477 19 -12 52 -26 73 -33 29 -8 1233 -10 4554 -8 l4515 3
40 22 c22 11 52 34 67 50 14 15 236 298 493 628 257 330 559 719 673 865 2649
3405 4432 5704 4449 5739 16 30 23 62 23 100 0 38 -324 1514 -990 4506 -544
2448 -996 4474 -1005 4503 -30 97 -60 119 -358 269 -148 74 -270 133 -271 131
-31 -40 -286 -418 -286 -423 0 -3 100 -55 223 -114 l223 -108 181 -814 c100
-448 535 -2404 968 -4347 l786 -3532 -1758 -2262 c-967 -1244 -2185 -2811
-2708 -3482 l-950 -1221 -4336 -3 -4336 -2 -134 171 c-74 94 -152 195 -174
223 -22 28 -1181 1519 -2576 3313 l-2536 3262 173 778 c96 428 530 2380 965
4338 435 1958 797 3565 803 3572 6 7 754 379 1661 826 908 448 2458 1214 3445
1702 987 488 2000 988 2251 1112 l455 224 3172 -1565 c1745 -861 3174 -1566
3176 -1566 6 0 358 391 354 395 -1 1 -127 63 -278 137 -266 131 -2246 1109
-5005 2473 l-1330 658 -75 4 c-63 3 -84 0 -130 -20z"/>
<path d="M24738 39979 c-383 -191 -4370 -2160 -5638 -2785 -1430 -706 -1380
-678 -1408 -771 -6 -21 -405 -1811 -887 -3978 -926 -4163 -888 -3981 -849
-4056 27 -53 4941 -6365 4971 -6386 15 -11 43 -25 62 -31 25 -9 1033 -12 4006
-12 l3971 0 52 26 c49 24 163 169 2514 3191 1355 1741 2473 3184 2484 3207 12
23 24 57 28 77 5 29 -191 923 -874 3992 -484 2175 -885 3968 -891 3984 -22 58
-58 91 -158 142 l-99 51 -126 -193 -125 -192 52 -26 52 -27 848 -3813 c467
-2098 849 -3819 850 -3825 1 -6 -97 -139 -219 -295 -121 -156 -1194 -1536
-2383 -3066 l-2164 -2783 -3818 0 -3818 0 -384 493 c-278 356 -4312 5547
-4378 5633 -5 6 57 308 150 725 88 393 471 2111 851 3819 380 1707 695 3109
700 3114 5 5 1554 773 3442 1706 l3433 1697 90 -43 c50 -23 1315 -648 2813
-1388 1497 -740 2728 -1346 2735 -1345 7 0 78 78 159 174 l146 172 -1746 863
c-961 475 -2283 1128 -2938 1452 l-1191 588 -66 0 c-62 0 -74 -4 -249 -91z"/>
<path d="M36190 17425 l0 -95 260 0 260 0 0 -740 0 -740 105 0 105 0 0 740 0
740 265 0 265 0 0 95 0 95 -630 0 -630 0 0 -95z"/>
<path d="M37740 16685 l0 -835 100 0 100 0 2 695 3 695 58 -167 c32 -93 153
-406 269 -696 l210 -528 90 3 91 3 199 505 c109 278 230 595 267 705 l68 200
-5 -708 -5 -707 107 0 106 0 0 835 0 835 -147 0 -148 0 -218 -568 c-120 -312
-239 -632 -266 -712 l-48 -145 -56 170 c-31 94 -153 414 -269 713 l-213 542
-147 0 -148 0 0 -835z"/>
<path d="M27203 17009 c-422 -65 -755 -305 -943 -678 -45 -90 -105 -278 -127
-396 -25 -140 -25 -548 0 -682 85 -450 324 -785 682 -958 199 -96 374 -130
639 -122 159 4 195 8 296 35 440 115 760 450 845 885 l13 67 -288 0 -288 0
-11 -47 c-37 -148 -153 -296 -286 -365 -107 -55 -181 -72 -320 -72 -133 0
-208 15 -312 64 -238 111 -385 370 -411 724 -20 266 15 485 109 675 43 88 65
118 130 184 65 65 95 86 172 122 50 24 119 49 152 56 88 19 267 16 345 -5 201
-54 357 -207 415 -408 l16 -58 285 0 c324 0 293 -11 270 101 -21 98 -63 215
-108 299 -158 297 -436 495 -793 566 -95 19 -393 27 -482 13z"/>
<path d="M13740 15595 l0 -1385 285 0 285 0 0 590 0 590 600 0 600 0 0 -590 0
-590 285 0 285 0 0 1385 0 1385 -285 0 -285 0 0 -560 0 -560 -600 0 -600 0 0
560 0 560 -285 0 -285 0 0 -1385z"/>
<path d="M16570 15595 l0 -1385 945 0 945 0 0 235 0 235 -660 0 -660 0 0 345
0 345 608 2 607 3 3 233 2 232 -610 0 -610 0 0 335 0 335 660 0 660 0 0 235 0
235 -945 0 -945 0 0 -1385z"/>
<path d="M18890 15596 l0 -1386 285 0 285 0 0 455 0 455 258 0 c290 0 450 11
564 40 436 108 688 434 688 890 0 473 -257 796 -722 906 -64 15 -149 18 -715
21 l-643 4 0 -1385z m1159 899 c175 -42 299 -167 331 -335 42 -222 -45 -430
-215 -514 -103 -50 -147 -56 -437 -56 l-268 0 0 460 0 460 263 0 c198 0 278
-4 326 -15z"/>
<path d="M21230 16745 l0 -235 423 -2 422 -3 3 -1147 2 -1148 285 0 285 0 0
1150 0 1150 425 0 425 0 0 235 0 235 -1135 0 -1135 0 0 -235z"/>
<path d="M24305 16968 c-31 -84 -945 -2745 -945 -2751 0 -4 140 -6 312 -5
l311 3 101 313 100 312 501 0 500 0 103 -315 103 -315 314 0 c173 0 315 3 315
8 0 4 -185 534 -411 1177 -226 644 -443 1262 -482 1375 l-72 205 -373 3 c-293
2 -374 0 -377 -10z m455 -759 c97 -353 165 -586 226 -772 26 -76 44 -140 42
-143 -3 -2 -160 -3 -350 -2 l-345 3 34 105 c57 176 177 601 243 863 35 136 65
246 67 244 2 -2 39 -136 83 -298z"/>
<path d="M29000 15595 l0 -1385 945 0 945 0 0 235 0 235 -660 0 -660 0 0 345
0 345 610 0 610 0 0 235 0 235 -610 0 -610 0 0 335 0 335 660 0 660 0 0 235 0
235 -945 0 -945 0 0 -1385z"/>
<path d="M31320 15596 l0 -1386 285 0 285 0 0 490 0 490 232 -2 233 -3 256
-485 257 -485 315 -3 316 -2 -290 536 c-159 295 -289 538 -289 539 0 2 31 20
70 41 300 157 455 488 410 874 -40 350 -229 593 -550 711 -175 63 -154 62
-872 66 l-658 4 0 -1385z m1224 886 c122 -45 208 -118 247 -210 33 -75 45
-189 31 -274 -16 -93 -40 -146 -93 -203 -51 -55 -107 -90 -192 -118 -56 -18
-92 -21 -354 -25 l-293 -4 0 432 0 432 298 -4 c276 -4 301 -6 356 -26z"/>
<path d="M33690 16745 l0 -235 425 0 425 0 0 -1150 0 -1150 285 0 285 0 2
1148 3 1147 423 3 422 2 0 235 0 235 -1135 0 -1135 0 0 -235z"/>
</g>
</svg>
